<?xml version="1.0" encoding="utf-8"?>
<!-- Generator: Adobe Illustrator 24.0.2, SVG Export Plug-In . SVG Version: 6.00 Build 0)  -->
<svg version="1.1" id="레이어_1" xmlns="http://www.w3.org/2000/svg" xmlns:xlink="http://www.w3.org/1999/xlink" x="0px"
	 y="0px" viewBox="0 0 85 25" style="enable-background:new 0 0 85 25;" xml:space="preserve">
<style type="text/css">
	.st0{fill:#391C1C;}
	.st1{fill:#F2DC22;}
</style>
<g>
	<path class="st0" d="M64.7,15.6V4.2h1.7v11.5c0,3.4-2.1,5.4-6,5.4c-3.9,0-6-2-6-5.4h1.7c0,2.7,1.4,4.2,4.3,4.2
		C63.2,19.9,64.7,18.4,64.7,15.6z"/>
	<path class="st0" d="M83,19.2c-1.2,1.3-3.1,1.9-5.5,1.9c-2.5,0-4.3-0.7-5.5-1.9c-1.5-1.6-2-3.9-2-6.7c0-2.7,0.5-5,2-6.6
		c1.2-1.2,3-1.9,5.5-1.9c2.5,0,4.3,0.7,5.5,1.9c1.5,1.6,2,3.9,2,6.6C85,15.3,84.5,17.6,83,19.2z M81.7,6.6c-1-0.9-2.4-1.5-4.2-1.5
		c-1.8,0-3.3,0.5-4.2,1.5c-1.2,1.3-1.7,3.2-1.7,5.9c0,2.7,0.4,4.6,1.7,5.9c0.9,1,2.4,1.5,4.2,1.5c1.8,0,3.3-0.5,4.2-1.5
		c1.2-1.3,1.7-3.2,1.7-5.9C83.3,9.8,82.9,7.9,81.7,6.6z"/>
	<g>
		<path class="st1" d="M7.5,21H0V4h7.5c6.8,0,7.9,4.2,7.9,8.4C15.5,16.9,14.3,21,7.5,21z M7.2,6.7H3.8v11.6h3.4
			c3.2,0,4.5-1.3,4.5-5.8C11.7,8,10.4,6.7,7.2,6.7z"/>
		<path class="st1" d="M40.7,9.5V21h-3.8V4h3.9L48,15.5V4h3.8V21h-3.9L40.7,9.5z"/>
		<path class="st1" d="M32.2,6.1c-1.3-1.5-3.3-2.4-6.3-2.4c-3,0-5,0.9-6.3,2.4c-1.5,1.7-1.8,4-1.8,6.4c0,2.4,0.3,4.7,1.8,6.4
			c1.3,1.5,3.3,2.4,6.3,2.4c3,0,5-0.9,6.3-2.4c1.5-1.7,1.8-4,1.8-6.4C34.1,10.1,33.7,7.8,32.2,6.1z M28.4,15.4
			c-0.4,0.3-0.9,0.5-1.6,0.6v0.5c0,0.1,0,0.3-0.1,0.4c-0.1,0.1-0.1,0.2-0.2,0.3c-0.1,0.1-0.2,0.1-0.3,0.2c-0.1,0-0.2,0.1-0.4,0.1
			c-0.3,0-0.5-0.1-0.7-0.2c-0.2-0.1-0.3-0.4-0.3-0.7V16c-0.3,0-0.6-0.1-0.9-0.2s-0.5-0.2-0.7-0.3c-0.2-0.1-0.4-0.3-0.4-0.5
			c-0.1-0.2,0-0.4,0.1-0.6c0.1-0.1,0.2-0.2,0.3-0.2c0.1-0.1,0.3-0.1,0.4-0.1c0.2,0,0.3,0,0.4,0.1c0.1,0.1,0.2,0.1,0.3,0.2
			c0.1,0.1,0.3,0.1,0.5,0.2c0.2,0,0.5,0.1,0.8,0.1c0.3,0,0.5,0,0.7-0.1c0.2-0.1,0.2-0.2,0.2-0.4c0-0.1,0-0.2-0.1-0.2
			c-0.1-0.1-0.2-0.1-0.3-0.2c-0.1-0.1-0.3-0.1-0.5-0.2c-0.2-0.1-0.4-0.1-0.6-0.2c-0.1,0-0.2,0-0.3-0.1c-0.1,0-0.2-0.1-0.2-0.1
			c-0.4-0.1-0.7-0.3-1-0.5c-0.3-0.2-0.4-0.4-0.6-0.7c-0.1-0.2-0.2-0.5-0.2-0.8c0-0.3,0-0.5,0.1-0.7c0.1-0.3,0.3-0.6,0.6-0.9
			C24,9.2,24.4,9.1,24.8,9V8.5c0-0.3,0.1-0.5,0.3-0.7c0.2-0.1,0.4-0.2,0.7-0.2c0.1,0,0.3,0,0.4,0.1c0.1,0,0.2,0.1,0.3,0.2
			c0.1,0.1,0.2,0.2,0.2,0.3c0.1,0.1,0.1,0.2,0.1,0.4v0.4c0.3,0,0.5,0.1,0.7,0.1c0.2,0.1,0.3,0.1,0.5,0.2c0.2,0.1,0.4,0.3,0.6,0.5
			c0.1,0.2,0.2,0.4,0.1,0.6c-0.1,0.2-0.2,0.3-0.4,0.4c-0.2,0.1-0.4,0.1-0.6,0.1c-0.1,0-0.2,0-0.3,0c-0.1,0-0.2-0.1-0.2-0.1
			c-0.1-0.1-0.3-0.1-0.5-0.2c-0.2-0.1-0.5-0.1-0.8-0.1c-0.3,0-0.5,0-0.6,0.1c-0.1,0.1-0.2,0.2-0.2,0.4c0,0.2,0.1,0.3,0.3,0.4
			c0.2,0.1,0.6,0.2,1,0.4c0.1,0,0.2,0,0.3,0.1c0.1,0,0.2,0,0.3,0.1c0.3,0.1,0.6,0.2,0.9,0.4c0.3,0.1,0.5,0.3,0.7,0.5
			c0.2,0.2,0.3,0.4,0.4,0.7c0.1,0.2,0.1,0.5,0.1,0.8C29,14.7,28.8,15.1,28.4,15.4z"/>
	</g>
</g>
</svg>
